<?xml version="1.0" encoding="UTF-8" standalone="no"?>
<!-- Created with Inkscape (http://www.inkscape.org/) -->

<svg
   width="132.61206mm"
   height="38.564747mm"
   viewBox="0 0 132.61206 38.564747"
   version="1.1"
   id="svg1"
   xmlns="http://www.w3.org/2000/svg"
   xmlns:svg="http://www.w3.org/2000/svg">
  <defs
     id="defs1" />
  <g
     id="layer1"
     transform="translate(-37.871837,-33.907429)">
    <path
       style="fill:#e8e6e1;fill-opacity:1;stroke:none;stroke-width:1.0918;stroke-linecap:round"
       d="m 162.77509,49.721149 c 0.78587,-2.533337 1.32771,-5.519858 -0.10809,-7.925926 -1.47469,-1.934862 -4.68171,-2.262124 -6.50012,-0.653509 -1.88492,1.93175 -1.32345,5.231068 -3.50643,6.948593 -1.17515,0.944636 -2.71507,0.127226 -4.02695,0.617698 -1.44307,0.411212 -2.47566,1.665616 -3.19164,2.923279 -0.73184,1.31317 -0.64048,3.003173 0.29976,4.192694 0.84427,1.37057 2.53552,2.408315 4.13424,1.67395 1.34327,-0.674709 2.57424,0.802042 1.613,1.949482 -0.55192,1.120879 -1.72107,2.202543 -1.38913,3.551481 0.79607,1.578718 2.83886,1.72673 4.39437,1.555807 2.29391,-0.388926 3.39321,-2.906027 5.57702,-3.49739 1.56834,-0.221982 3.10222,0.745668 4.66255,0.24094 2.39566,-0.505398 4.71052,-2.117089 5.58107,-4.461871 0.53187,-2.108579 -0.21953,-4.530259 -1.84596,-5.967111 -1.58288,-1.265912 -3.75883,-1.426083 -5.69369,-1.148117 z"
       id="path3" />
    <path
       style="fill:none;fill-opacity:1;stroke:#e8e6e1;stroke-width:1.22;stroke-linecap:round;stroke-miterlimit:4;stroke-dasharray:3.66, 3.66;stroke-dashoffset:0;stroke-opacity:1"
       d="m 148.85132,59.674147 c -5.93005,2.715978 -12.41747,3.960441 -18.85544,4.760667 -5.74564,0.259745 -11.54357,-0.718257 -17.177,-1.926635 -5.6998,-1.222616 -10.5979,-3.906317 -16.649928,-5.350001 -4.531482,-0.860148 -10.185194,-2.513015 -13.92857,1.176305 -2.803768,2.348396 -4.175404,6.734713 -1.637508,9.791542 2.980368,5.100836 11.530574,4.99307 14.166543,-0.409088 2.482542,-4.417844 -1.20213,-9.296777 -4.622943,-11.956124 -5.861467,-3.159373 -13.056813,-2.730024 -19.034939,-0.09323 -6.817858,3.128033 -13.423831,6.944439 -20.695281,8.934815 -4.092595,0.878257 -8.467438,1.425435 -12.544417,0.210173"
       id="path4" />
    <path
       style="font-size:21.3833px;font-family:'Gochi Hand';-inkscape-font-specification:'Gochi Hand, Normal';white-space:pre;fill:#e8e6e1;fill-opacity:1;stroke:none;stroke-width:6.50079;stroke-linecap:round"
       d="m 60.928228,39.171248 q -0.295749,0.06493 -0.578813,0.04154 -0.275104,-0.03581 -0.502451,-0.146258 -0.219387,-0.122876 -0.378579,-0.312414 -0.159192,-0.189538 -0.215159,-0.444495 -0.09402,-0.428326 0.184314,-0.767356 0.288537,-0.341269 0.859638,-0.466633 0.265155,-0.0582 0.532299,-0.01 0.264906,0.03805 0.484293,0.160932 0.229585,0.120639 0.391016,0.320374 0.159192,0.189539 0.210681,0.424098 0.09626,0.438525 -0.174116,0.765118 -0.262418,0.314156 -0.813123,0.435042 z m -0.714373,3.417162 q -0.07835,-0.35694 0.178345,-0.64846 0.264656,-0.303958 0.774569,-0.41589 0.917843,-0.201479 1.117828,0.417382 0.137055,0.42957 0.298735,0.97132 0.171878,0.539512 0.349229,1.152651 0.18531,0.600701 0.361417,1.256872 0.184066,0.643733 0.355696,1.279507 0.169391,0.625575 0.319629,1.212597 0.150238,0.587021 0.257692,1.076537 0.111937,0.509912 -0.199238,0.84546 -0.300972,0.333309 -0.994453,0.485537 -0.316145,0.0694 -0.533294,-0.04328 Q 62.295299,50.073926 62.232617,49.788375 61.923684,48.381017 61.583658,47.172897 61.251592,45.95234 60.959573,45.011615 60.677752,44.068649 60.467569,43.452029 60.265344,42.82297 60.213855,42.58841 Z m 7.216188,-2.941425 q 0.691518,-0.105713 1.452721,-0.03196 0.759625,0.06343 1.412752,0.259334 0.65155,0.185579 1.0974,0.47654 0.44585,0.290963 0.496341,0.621239 0.02525,0.165139 -0.08769,0.393652 -0.114517,0.218192 -0.29254,0.435529 -0.179599,0.207016 -0.408373,0.368738 -0.220031,0.149822 -0.405811,0.178224 -0.247708,0.03787 -0.5889,-0.121221 -0.33087,-0.160665 -0.7403,-0.351572 -0.400686,-0.202804 -0.865731,-0.342958 -0.465045,-0.140155 -0.970781,-0.06284 -0.330278,0.05049 -0.521776,0.248763 -0.182756,0.186374 -0.138577,0.475366 0.03945,0.258029 0.328177,0.488511 0.287154,0.220161 0.73228,0.437297 0.455449,0.215558 1.018841,0.446301 0.563392,0.230743 1.15374,0.499616 0.600666,0.267294 1.179838,0.601248 0.579171,0.333955 1.055854,0.757513 0.487005,0.421982 0.823071,0.962099 0.334489,0.529795 0.437048,1.200671 0.08836,0.577984 -0.04548,1.084314 -0.133843,0.50633 -0.463656,0.905308 -0.329815,0.398978 -0.827793,0.665228 -0.497978,0.26625 -1.127569,0.362498 -0.794729,0.121494 -1.503472,-0.02366 -0.707165,-0.134827 -1.25695,-0.483836 -0.549787,-0.349009 -0.918393,-0.894714 -0.358287,-0.547282 -0.46558,-1.249121 -0.138845,-0.908262 0.117993,-1.370021 0.267164,-0.463337 0.969002,-0.570629 0.433489,-0.06627 0.716764,0.05942 0.283274,0.125692 0.319564,0.363078 0.01891,0.123856 -0.0018,0.264341 -0.02235,0.130165 -0.05186,0.28255 -0.02077,0.140487 -0.03839,0.301615 -0.0073,0.159552 0.01634,0.314371 0.04103,0.26835 0.202745,0.497124 0.161722,0.228773 0.396547,0.382998 0.246723,0.162967 0.54275,0.233899 0.296027,0.07093 0.605662,0.02359 0.825693,-0.126222 0.721555,-0.807423 -0.08205,-0.5367 -0.577794,-0.946782 Q 70.430486,46.56082 69.72115,46.204515 69.010235,45.837888 68.19611,45.48704 67.392305,45.134614 66.67508,44.726702 65.957854,44.318792 65.447906,43.815819 64.93638,43.302526 64.83382,42.63165 q -0.0852,-0.557342 0.07086,-1.056507 0.166384,-0.500742 0.518418,-0.892554 0.350457,-0.402134 0.858756,-0.669962 0.51862,-0.269406 1.148211,-0.365654 z m 20.270139,4.537043 q 0.279098,-0.28622 0.570353,-0.311488 0.166434,-0.01441 0.308878,0.05705 0.142445,0.07148 0.324218,0.23388 0.176786,0.22571 0.252734,0.376325 0.08545,0.139311 0.09808,0.284938 0.0271,0.312058 -0.260622,0.619987 -0.463199,0.459396 -1.016834,0.842796 -0.554536,0.372996 -1.169205,0.656888 -0.614667,0.283892 -1.28087,0.456971 -0.665301,0.183481 -1.331029,0.241236 -0.842561,0.07309 -1.600053,-0.08127 -0.756591,-0.143968 -1.373394,-0.488707 -0.606402,-0.345643 -1.049506,-0.862657 -0.444006,-0.527416 -0.670901,-1.209911 -0.118887,-0.283134 -0.20932,-0.359131 -0.08093,-0.0873 -0.25777,-0.07196 -0.384877,0.03334 -0.609157,-0.135798 -0.224284,-0.169188 -0.254966,-0.522855 -0.01259,-0.145631 0.0046,-0.189041 l 0.0028,-0.209845 q 0.01952,-0.378984 0.150712,-0.55805 0.141591,-0.179968 0.464053,-0.207943 l 0.156029,-0.01355 q 0.436887,-0.03786 0.578524,-0.458921 0.260194,-0.745712 0.708052,-1.381942 0.447857,-0.63623 1.03588,-1.106455 0.587121,-0.480628 1.274602,-0.770836 0.696983,-0.301513 1.435525,-0.365585 0.769747,-0.06678 1.455327,0.104311 0.695081,0.159783 1.228669,0.511744 0.533588,0.351959 0.860464,0.858095 0.33728,0.505234 0.390523,1.118951 0.03699,0.426483 -0.09875,0.794589 -0.135749,0.368107 -0.424346,0.66563 -0.289499,0.287123 -0.722346,0.492359 -0.422445,0.204334 -0.979641,0.305075 l -3.577907,0.677209 q -0.208038,0.01807 -0.334241,0.1338 -0.1158,0.11485 -0.100459,0.291683 0.02344,0.270453 0.242759,0.502954 0.229698,0.231599 0.579707,0.40036 0.35951,0.157456 0.80632,0.233976 0.457212,0.07562 0.925302,0.03501 0.447285,-0.03882 0.908156,-0.162631 0.47037,-0.135129 0.913619,-0.341268 0.453652,-0.207041 0.870682,-0.473786 0.416128,-0.277147 0.774832,-0.612195 z m -2.55247,-2.482474 q 0.153323,-0.04474 0.257819,-0.169091 0.103593,-0.13475 0.08825,-0.311584 -0.01355,-0.15603 -0.139689,-0.281329 -0.126154,-0.125299 -0.332816,-0.212174 -0.207564,-0.09728 -0.473029,-0.137127 -0.265463,-0.03985 -0.556719,-0.01458 -0.426483,0.03699 -0.862939,0.200628 -0.436457,0.163628 -0.782478,0.403252 -0.346924,0.229223 -0.55411,0.498724 -0.208088,0.259099 -0.187332,0.498345 0.02076,0.239246 0.312012,0.213978 0.176831,-0.01538 0.5685,-0.09124 0.391666,-0.0759 0.865646,-0.16942 0.473077,-0.103921 0.955653,-0.219152 0.482578,-0.115226 0.841232,-0.209224 z m 5.835778,4.970395 q -0.107994,-1.386384 -0.304342,-2.551219 -0.186211,-1.175533 -0.38569,-2.047846 -0.189041,-0.872575 -0.338374,-1.411928 -0.138892,-0.539617 -0.142306,-0.675307 -0.005,-0.198315 0.136422,-0.389871 0.151844,-0.191814 0.378065,-0.333276 0.225958,-0.151902 0.484804,-0.241962 0.269282,-0.09033 0.488476,-0.09583 0.177439,-0.0045 0.304269,0.05502 0.137265,0.05922 0.193127,0.204034 0.05665,0.17613 0.103388,0.373398 0.05691,0.186568 0.115921,0.456638 0.07234,0.384624 0.176711,0.382 0.114814,-0.0029 0.252287,-0.351004 0.196687,-0.485385 0.428886,-0.804552 0.232199,-0.319167 0.49912,-0.50343 0.277098,-0.194963 0.56752,-0.275373 0.300858,-0.08067 0.624429,-0.0888 0.98115,-0.02466 1.679019,0.730682 0.708306,0.75508 1.131231,2.206661 0.05639,0.165692 0.09945,0.216832 0.0428,0.0407 0.09499,0.03939 0.05218,-0.0013 0.103328,-0.04438 0.06131,-0.05376 0.109832,-0.201204 0.233453,-0.684751 0.555657,-1.162846 0.32194,-0.488532 0.669479,-0.789709 0.357714,-0.311878 0.730063,-0.457013 0.372348,-0.145135 0.716798,-0.153793 0.6367,-0.016 1.15996,0.440843 0.53343,0.446144 0.95446,1.406888 0.43121,0.950043 0.76072,2.42486 0.33969,1.464118 0.5889,3.484061 0.0142,0.563639 -0.32477,0.79149 -0.33868,0.238288 -0.93363,0.253241 -0.3862,0.0097 -0.60959,-0.151788 -0.22339,-0.161495 -0.26152,-0.432091 -0.17216,-1.447438 -0.3675,-2.57052 -0.18516,-1.133782 -0.39245,-1.901455 -0.20756,-0.77811 -0.44742,-1.179412 -0.22942,-0.401563 -0.50081,-0.394742 -0.135685,0.0034 -0.339458,0.206974 -0.193332,0.203303 -0.409584,0.741401 -0.216514,0.527659 -0.443935,1.452479 -0.227682,0.914382 -0.421634,2.33969 -0.05265,0.398209 -0.370982,0.615098 -0.307886,0.216625 -0.767148,0.228169 -0.532326,0.01338 -0.745279,-0.148379 -0.202515,-0.162019 -0.23336,-0.55813 -0.05907,-0.687843 -0.180497,-1.363675 -0.111253,-0.686531 -0.272862,-1.298687 -0.161868,-0.622593 -0.352428,-1.140022 -0.190821,-0.527867 -0.398845,-0.909079 -0.208287,-0.391651 -0.422552,-0.605597 -0.214264,-0.213947 -0.412582,-0.208962 -0.260944,0.0066 -0.502269,0.378177 -0.230886,0.371355 -0.412414,1.044357 -0.17109,0.672739 -0.262295,1.615024 -0.0912,0.942285 -0.06208,2.100877 0.005,0.198316 0.02045,0.396371 0.01516,0.187617 0.02045,0.39637 0.0079,0.313133 -0.09152,0.514074 -0.08896,0.200678 -0.27395,0.320216 -0.174556,0.119275 -0.413575,0.16706 -0.23902,0.04778 -0.520839,0.05487 -0.260944,0.0066 -0.41856,-0.03126 -0.157353,-0.02737 -0.242693,-0.09834 -0.08534,-0.07097 -0.119799,-0.195431 -0.0342,-0.114029 -0.04857,-0.270334 z m 13.60174,-8.019271 q 0.0208,-0.406673 0.39637,-0.596593 0.37614,-0.200349 1.05392,-0.165752 0.15642,0.008 0.27942,0.05608 0.123,0.04809 0.21046,0.178017 0.0984,0.120025 0.17119,0.332833 0.0728,0.212808 0.1397,0.540318 0.0648,0.36922 0.14821,0.373477 0.073,0.0038 0.1927,-0.293348 0.21803,-0.584786 0.54279,-1.007306 0.33571,-0.432415 0.73643,-0.704691 0.40125,-0.282704 0.85708,-0.405803 0.46626,-0.122562 0.96678,-0.09701 1.01147,0.05163 1.86768,0.482154 0.85675,0.420098 1.45824,1.130353 0.60201,0.699826 0.92014,1.636073 0.31865,0.925821 0.26436,1.989425 -0.0575,1.126169 -0.5027,2.065273 -0.43477,0.939635 -1.16908,1.602616 -0.73377,0.652555 -1.72322,0.988873 -0.97956,0.347277 -2.12658,0.28873 l -0.53073,-0.048 q -0.46924,-0.02395 -0.49639,0.507851 l 0.28754,4.81336 q -0.0194,0.176731 -0.14164,0.316865 -0.11226,0.151091 -0.30581,0.256212 -0.18312,0.105657 -0.43657,0.155445 -0.24303,0.05032 -0.50371,0.03702 -0.75078,-0.03832 -0.78833,-0.531607 -0.12211,-1.908981 -0.30593,-3.632927 -0.17341,-1.723415 -0.3799,-3.208061 -0.19554,-1.494542 -0.39448,-2.717438 -0.19895,-1.222895 -0.36172,-2.130304 -0.15235,-0.906877 -0.23831,-1.475816 -0.0964,-0.569471 -0.0879,-0.736311 z m 3.24843,2.925838 q -0.0346,0.677789 -0.0165,1.347808 0.0186,0.659593 0.094,1.437078 0.0387,0.472427 0.48381,0.557882 0.26791,0.0764 0.5984,0.156001 0.34145,0.0697 0.57086,0.08141 0.66736,0.03407 1.2197,-0.136378 0.55234,-0.170446 0.95678,-0.515714 0.40498,-0.355697 0.63961,-0.855999 0.23463,-0.500302 0.26656,-1.125951 0.0388,-0.761204 -0.13617,-1.428783 -0.17449,-0.678004 -0.51443,-1.186726 -0.32952,-0.508187 -0.80524,-0.814746 -0.4653,-0.306025 -1.02838,-0.334767 -0.49009,-0.02501 -0.90794,0.173204 -0.40689,0.188324 -0.71855,0.559239 -0.30071,0.361019 -0.4848,0.895264 -0.18408,0.534246 -0.21761,1.191178 z m 10.41521,-6.819705 q 0.0712,-0.548778 0.41004,-0.725917 0.34018,-0.187493 1.05463,-0.0948 0.25885,0.03359 0.42816,0.108193 0.181,0.0656 0.28913,0.205969 0.11849,0.141714 0.1641,0.358204 0.0573,0.207477 0.0688,0.524825 -6.9e-4,0.979069 0.0113,2.02295 0.0223,1.045225 0.0537,2.102146 0.002,0.474003 0.4262,0.529081 0.1139,0.01478 0.37544,0.02765 0.27324,0.0039 0.63967,0.01982 0.36778,0.0056 0.78732,0.01792 0.42989,0.01366 0.8481,0.03634 0.4299,0.01366 0.80534,0.04131 0.38714,0.01864 0.67706,0.05626 0.22779,0.02956 0.35031,0.140205 0.12386,0.100299 0.17752,0.254663 0.0654,0.14535 0.0633,0.32406 0.009,0.169708 -0.0132,0.34572 -0.0202,0.155317 -0.10377,0.312922 -0.0733,0.158952 -0.19427,0.280124 -0.10931,0.112162 -0.26502,0.176188 -0.1557,0.06403 -0.34208,0.03985 -0.90082,-0.116872 -1.83041,-0.174306 -0.9179,-0.06644 -1.84116,-0.09147 -0.47401,0.0017 -0.5264,0.405492 -0.004,0.03104 -8.5e-4,0.08421 0.005,0.04275 10e-4,0.07379 0.007,0.916943 0.009,1.717302 0.0118,0.801706 0.004,1.432364 0.004,0.621649 -0.009,1.041196 -5.8e-4,0.410531 -0.0181,0.545139 -0.0484,0.372755 -0.15309,0.611854 -0.10605,0.249453 -0.29187,0.383274 -0.18717,0.144175 -0.47479,0.17003 -0.27862,0.03755 -0.69279,-0.01618 -0.39347,-0.05105 -0.55566,-0.261606 -0.1622,-0.210557 -0.13318,-0.596354 0.0964,-1.229866 0.12164,-2.479489 0.0266,-1.259978 0.0104,-2.514975 -0.0356,-0.457315 -0.40818,-0.505686 -0.0311,-0.004 -0.0738,9.03e-4 -0.0428,0.0049 -0.0738,9.02e-4 -0.66078,0.06167 -1.24906,0.132747 -0.5883,0.07108 -1.1068,0.172265 -0.29166,0.05692 -0.51447,0.07013 -0.22147,0.0029 -0.39749,-0.01999 -0.23815,-0.03089 -0.32518,-0.252761 -0.0857,-0.232214 -0.0436,-0.553233 0.0148,-0.113899 0.0543,-0.256171 0.0409,-0.152628 0.12179,-0.289528 0.0719,-0.148598 0.20194,-0.258071 0.12101,-0.121173 0.31813,-0.179826 0.45771,-0.119599 1.2067,-0.211943 0.75032,-0.102697 1.68299,-0.150152 0.2138,-0.02491 0.34248,-0.124022 0.14037,-0.108127 0.17127,-0.34628 0.007,-0.05177 0.0135,-0.103545 0.008,-0.06213 -0.004,-0.12696 -0.0421,-0.974088 -0.0967,-1.770806 -0.0428,-0.805734 -0.0842,-1.37964 -0.031,-0.572567 -0.0515,-0.901608 -0.0201,-0.329069 -0.0138,-0.380812 z m 10.31382,14.266641 q -0.60833,-0.149663 -1.1443,-0.593351 -0.5335,-0.453825 -0.96391,-1.108092 -0.43042,-0.654267 -0.73483,-1.471075 -0.30192,-0.826947 -0.45721,-1.72535 -0.15277,-0.908545 -0.13608,-1.850638 0.0167,-0.942095 0.23624,-1.834303 0.16961,-0.689434 0.52583,-0.913613 0.35872,-0.23432 0.99746,-0.07716 0.80096,0.197057 0.73007,0.878523 -0.16173,1.444045 -0.11416,2.649264 0.0476,1.205218 0.28896,2.103299 0.25154,0.900575 0.68414,1.458603 0.44272,0.560524 1.05105,0.710188 0.43596,0.107259 0.87361,-0.01087 0.44015,-0.128267 0.82132,-0.453832 0.1388,-0.127137 0.20414,-0.261596 0.0755,-0.131963 0.14065,-0.309473 0.22779,-0.707378 0.45825,-1.381846 0.24308,-0.68211 0.47602,-1.366717 0.0951,-0.299174 0.20334,-0.476843 0.10823,-0.17767 0.25733,-0.259263 0.1491,-0.08159 0.35171,-0.07476 0.21275,0.0093 0.51692,0.08416 0.34472,0.08481 0.5631,0.246062 0.22088,0.151114 0.31808,0.411582 0.0997,0.250331 0.0733,0.620149 -0.0138,0.362179 -0.14105,0.879252 -0.10975,0.446105 -0.26304,0.763222 -0.14065,0.309473 -0.30424,0.581047 -0.15095,0.263929 -0.3019,0.527858 -0.13833,0.256286 -0.24091,0.585874 -0.25773,0.829043 -0.45044,1.437528 -0.19022,0.598346 -0.3279,1.026829 -0.12754,0.430977 -0.22513,0.740288 -0.0875,0.311807 -0.15747,0.552641 -0.0725,0.250977 -0.12738,0.474027 -0.0548,0.223049 -0.11974,0.486659 -0.11723,0.47652 -0.21387,1.044128 -0.0991,0.577746 -0.18579,1.1048 -0.0765,0.529546 -0.13324,0.934934 -0.0567,0.405386 -0.0941,0.557469 -0.0474,0.19264 -0.21146,0.335061 -0.16407,0.142427 -0.39927,0.224342 -0.2352,0.08191 -0.52641,0.08554 -0.2937,0.01372 -0.59786,-0.06107 -0.26361,-0.06485 -0.38093,-0.287261 -0.10964,-0.209776 -0.0576,-0.50879 0.0644,-0.392752 0.18128,-0.955373 0.11442,-0.55248 0.2488,-1.18607 0.13187,-0.623451 0.28138,-1.274825 0.15714,-0.638739 0.2842,-1.198864 0.12456,-0.549986 0.22683,-0.965674 0.10227,-0.415687 0.14717,-0.598185 0.0449,-0.182495 0.0218,-0.263445 -0.0206,-0.09109 -0.13213,-0.118525 -0.0608,-0.01497 -0.17219,6.46e-4 -0.10887,0.0055 -0.26063,0.05416 -0.40724,0.125614 -0.79468,0.127066 -0.38744,0.0015 -0.793,-0.09833 z"
       id="text1"
       aria-label="is empty" />
    <path
       style="fill:none;fill-opacity:1;stroke:none;stroke-width:1.72;stroke-linecap:round;stroke-opacity:1"
       d="m 53.533905,45.353799 c 0.254299,-0.55088 50.737035,-6.275796 76.564345,7.189469"
       id="path103" />
  </g>
</svg>
