<svg viewBox="0 0 24 24" xmlns="http://www.w3.org/2000/svg"><circle cx="12" cy="10" fill="#f1c40f" r="6"/><path d="m6 15.304c-2.426 1.185-4 3.066-4 5.184v3.512h9v-10l-5-1z" fill="#be9664"/><path d="m18 15.304v-2.304l-5 1v10h9v-3.513c0-2.117-1.574-3.999-4-5.183z" fill="#be9664"/><path d="m7 9v1c0 1.105.896 2 2 2h1c1.104 0 2-.895 2-2 0 1.105.896 2 2 2h1c1.104 0 2-.895 2-2v-1z" fill="#323232"/><path d="m11 15h2v9h-2z" fill="#a57d52"/><path d="m19 9c.55 0 1-.45 1-1s-.45-1-1-1h-14c-.55 0-1 .45-1 1s.45 1 1 1z" fill="#505050"/><path d="m16.758 1.937c-.389-1.586-2.119-2.397-3.553-1.666-.757.386-1.652.386-2.409 0-1.435-.731-3.165.08-3.554 1.666l-.751 3.063h11.019z" fill="#505050"/><path d="m6.491 5-.491 2h12l-.491-2z" fill="#323232"/></svg>
